<?xml version="1.0" encoding="utf-8"?>
<!-- Generator: Adobe Illustrator 18.1.1, SVG Export Plug-In . SVG Version: 6.00 Build 0)  -->
<svg version="1.1" id="Capa_1" xmlns="http://www.w3.org/2000/svg" xmlns:xlink="http://www.w3.org/1999/xlink" x="0px" y="0px"
	 viewBox="0 0 1500 1091" enable-background="new 0 0 1500 1091" xml:space="preserve">
<g>
	<g>
		<path fill="#FFFFFF" d="M750.1,0C521.9,0.2,336.9,185.3,336.8,413.5c0,222.1,381.2,652.3,397.3,670.4c7.8,8.8,21.3,9.5,30,1.7
			c0.6-0.5,1.1-1.1,1.7-1.7c16.2-18.3,397.3-448.4,397.3-670.4C1163.1,185.3,978.3,0.4,750.1,0z M750.1,1037.3
			c-72.7-85.1-370.7-442.2-370.7-624.1c0-204.8,166-370.7,370.7-370.7s370.7,166,370.7,370.7C1120.8,595.1,822.8,952.7,750.1,1037.3
			z"/>
	</g>
</g>
<g>
	<g>
		<path fill="#FFFFFF" d="M757.6,207.4c-123.7,0.1-223.9,100.5-223.8,224.2S634.3,655.4,758,655.3c123.6-0.1,223.8-100.4,223.8-224
			C981.5,307.7,881.2,207.5,757.6,207.4z M757.6,613c-100.2,0-181.4-81.2-181.4-181.4s81.2-181.4,181.4-181.4S939,331.4,939,431.6
			C938.9,531.7,857.7,612.9,757.6,613z"/>
	</g>
</g>
</svg>
