<?xml version="1.0" encoding="utf-8"?>
<!-- Generator: Adobe Illustrator 18.1.1, SVG Export Plug-In . SVG Version: 6.00 Build 0)  -->
<svg version="1.1" id="Capa_1" xmlns="http://www.w3.org/2000/svg" xmlns:xlink="http://www.w3.org/1999/xlink" x="0px" y="0px"
	 viewBox="0 0 1500 1091" enable-background="new 0 0 1500 1091" xml:space="preserve">
<g>
	<path fill="#FFFFFF" d="M1081.3,1091c-45.4,0-100.2-11.4-160.5-34.1c-132.2-49.8-276-148.3-404.9-277.3
		c-129-129-227.5-272.8-277.3-405c-45.3-120.2-45.4-218.8-0.3-264c6.5-6.5,13.1-13.5,19.9-20.7C299.4,46.6,346-2.1,407.7,0.1
		c42.5,1.8,83.7,28.2,125.9,80.7c124.7,155.1,68.5,210.3,3.4,274.4l-11.5,11.4c-10.6,10.6-30.8,59.9,156.3,247
		C743,674.6,795,719.3,836.7,746.4c26.2,17,73.1,42.8,92.3,23.6l11.6-11.7c64-64.9,119.3-120.9,274.2,3.6
		c52.5,42.2,78.9,83.4,80.7,126c2.5,61.7-46.6,108.4-90,149.5c-7.2,6.8-14.1,13.4-20.6,19.9C1162.4,1079.7,1126.5,1091,1081.3,1091z
		 M403.3,36.7c-43.9,0-83.4,41.7-118.5,78.6c-7,7.4-13.9,14.6-20.6,21.3c-33.6,33.6-30.2,121.9,8.7,225.1
		c48.1,127.4,143.6,266.6,269,392C667.2,879,806.4,974.5,933.8,1022.6c103.2,39,191.5,42.3,225.1,8.7c6.7-6.7,13.9-13.5,21.3-20.5
		c37.7-35.8,80.4-76.4,78.6-121.4c-1.3-30.9-23.8-64.2-67-98.9c-129.1-103.8-165.2-67.2-225.1-6.5l-11.7,11.9
		c-28.6,28.7-75.1,22.3-138.2-18.7c-43.8-28.5-97.9-74.8-160.7-137.6C500.7,484.2,451.1,389.2,499.7,340.5l11.7-11.6
		c60.9-59.9,97.6-96-6.3-225.2c-34.8-43.1-68-65.6-98.9-67C405.2,36.7,404.3,36.7,403.3,36.7z"/>
</g>
</svg>
