<?xml version="1.0" encoding="UTF-8"?>
<!DOCTYPE svg PUBLIC "-//W3C//DTD SVG 1.1//EN" "http://www.w3.org/Graphics/SVG/1.1/DTD/svg11.dtd">
<!-- Creator: CorelDRAW X6 -->
<svg xmlns="http://www.w3.org/2000/svg" xml:space="preserve" width="5.82677in" height="4.13386in" version="1.1" style="shape-rendering:geometricPrecision; text-rendering:geometricPrecision; image-rendering:optimizeQuality; fill-rule:evenodd; clip-rule:evenodd"
viewBox="0 0 5827 4134"
 xmlns:xlink="http://www.w3.org/1999/xlink">
 <defs>
  <style type="text/css">
   <![CDATA[
    .fil0 {fill:none}
    .fil1 {fill:#0978BD}
   ]]>
  </style>
 </defs>
 <g id="Layer_x0020_1">
  <metadata id="CorelCorpID_0Corel-Layer"/>
  <g id="_454988976">
   <rect class="fil0" width="5827" height="4134"/>
   <g>
    <path class="fil1" d="M5407 1762c-296,0 -454,166 -460,381 -43,-234 -245,-387 -475,-387 -229,0 -424,152 -467,384 -1,-206 -162,-383 -371,-383 -91,0 -170,35 -233,96l0 -300 -223 0 0 669c0,22 -1,36 -4,69 -14,139 -107,207 -209,207 -106,0 -201,-50 -204,-207 0,-27 -1,-38 -1,-58l0 -250 347 0 0 -210 -347 0 0 -220 -226 0 0 589c-43,-219 -236,-385 -468,-385 -149,0 -283,69 -370,176l0 -171 -25 0c-291,0 -448,160 -459,370 -43,-213 -219,-370 -441,-370 -116,0 -207,42 -278,113l0 -324 -218 0 0 564c0,42 1,81 2,118 3,261 186,475 468,475 244,0 422,-159 466,-370l0 348 223 0 0 -435c0,-20 1,-42 2,-62 4,-132 91,-211 229,-214 -48,74 -76,163 -76,258 0,263 213,477 477,477 232,0 425,-165 468,-385l0 1c0,229 184,385 405,385 93,0 176,-40 239,-105l0 80 223 0 0 -473c0,-11 1,-20 1,-29 6,-152 95,-218 192,-218 97,0 181,66 184,217 1,13 1,22 1,37l0 466 226 0 0 -354c42,228 236,376 467,376 262,0 410,-168 450,-343l-218 0c-19,62 -97,158 -231,158 -121,0 -225,-83 -251,-218l726 0 0 381 223 0 0 -435c0,-20 1,-42 2,-62 4,-134 93,-214 235,-214l25 0 0 -213 -25 0zm-4661 732c-147,0 -260,-115 -260,-260 0,-145 113,-260 260,-260 148,0 260,114 260,260 0,146 -113,260 -260,260zm1321 0c-147,0 -260,-115 -260,-260 0,-145 113,-260 260,-260 148,0 260,114 260,260 0,146 -113,260 -260,260zm2164 -365c37,-114 131,-184 241,-184 141,0 226,113 242,184l-483 0z"/>
    <path class="fil1" d="M3854 1561l37 -89 37 89 -74 0zm-1 84l0 -6c-8,-1 -13,-2 -16,-3 -4,-2 -7,-6 -7,-11 0,-3 1,-7 2,-11 2,-5 7,-18 16,-39l85 0 13 32c2,4 3,9 4,13 1,4 2,7 2,8 0,5 -1,8 -4,9 -3,1 -9,2 -18,3l0 6 82 0 0 -6c-7,-1 -13,-3 -16,-6 -3,-3 -7,-11 -13,-23l-81 -184 -7 0 -67 160c-10,24 -17,38 -22,44 -4,5 -11,9 -19,9l0 6 65 0z"/>
    <path class="fil1" d="M4101 1499l0 11 -32 0 0 91c0,8 1,14 2,18 3,7 8,11 15,11 4,0 7,-1 10,-3 3,-2 6,-5 10,-8l4 3 -3 5c-6,7 -11,13 -17,16 -6,3 -12,5 -18,5 -12,0 -21,-6 -25,-17 -2,-6 -4,-14 -4,-25l0 -96 -17 0c-1,0 -1,-1 -1,-1 0,0 0,-1 0,-1 0,-1 0,-2 1,-2 0,-1 2,-2 5,-4 7,-6 12,-11 16,-15 3,-4 11,-14 22,-30 2,0 2,0 3,0 0,0 0,1 0,2l0 39 32 0z"/>
    <path class="fil1" d="M4194 1499l67 0 0 4c-5,0 -9,1 -12,1 -5,1 -7,4 -7,8 0,1 0,3 1,5 1,2 1,4 3,7l37 80 30 -80c0,-1 1,-3 2,-6 1,-3 1,-5 1,-6 0,-3 -1,-5 -3,-6 -2,-1 -4,-2 -7,-2l-5 0 0 -4 44 0 0 4c-4,1 -8,2 -10,5 -2,2 -4,6 -6,11l-50 133c-9,23 -17,39 -25,50 -8,10 -18,15 -30,15 -6,0 -11,-1 -17,-4 -5,-3 -8,-8 -8,-14 0,-4 1,-8 5,-10 3,-3 7,-4 12,-4 3,0 7,1 12,3 5,2 9,3 12,3 6,0 12,-7 19,-21 7,-14 10,-24 10,-28 0,-1 0,-2 -1,-4 0,-1 -1,-3 -1,-4l-50 -108c-4,-8 -7,-13 -9,-16 -3,-2 -7,-4 -12,-5l0 -4z"/>
    <path class="fil1" d="M4428 1505c15,0 27,8 35,25 8,16 12,34 12,52 0,18 -3,32 -10,43 -6,11 -16,17 -27,17 -15,0 -27,-8 -35,-25 -8,-16 -13,-34 -13,-53 0,-24 5,-41 16,-50 6,-6 13,-8 22,-8zm-67 67c0,23 7,41 21,56 14,15 31,22 52,22 21,0 38,-8 52,-23 13,-16 20,-34 20,-55 0,-23 -7,-41 -21,-55 -14,-14 -31,-21 -52,-21 -21,0 -38,7 -52,22 -13,15 -20,32 -20,54z"/>
    <path class="fil1" d="M4565 1499l0 101c0,7 1,13 3,17 4,8 11,12 22,12 7,0 14,-2 21,-7 4,-3 8,-6 12,-11l0 -86c0,-8 -2,-13 -5,-16 -3,-2 -9,-4 -19,-5l0 -6 51 0 0 113c0,7 1,12 4,14 3,3 8,4 16,3l0 4c-6,2 -10,3 -13,3 -3,1 -7,2 -14,4 -3,1 -9,3 -18,7 0,0 -1,0 -1,-1 0,0 0,-1 0,-2l0 -26c-7,9 -14,15 -20,19 -9,6 -19,10 -29,10 -9,0 -18,-3 -26,-10 -8,-6 -13,-17 -13,-32l0 -82c0,-8 -2,-14 -5,-17 -2,-2 -7,-3 -15,-4l0 -4 47 0z"/>
    <path class="fil1" d="M4680 1640c10,-1 16,-3 19,-5 3,-3 5,-8 5,-16l0 -72c0,-10 -1,-18 -3,-22 -2,-4 -5,-7 -11,-7 -1,0 -2,0 -4,0 -2,0 -4,1 -5,1l0 -5c6,-2 12,-4 19,-7 6,-2 11,-4 13,-5 5,-2 11,-4 16,-7 1,0 1,0 1,1 0,1 0,2 0,4l0 26c7,-10 13,-17 19,-22 6,-5 13,-8 19,-8 5,0 10,2 13,5 3,3 5,7 5,12 0,4 -1,8 -4,11 -3,3 -6,5 -10,5 -4,0 -8,-2 -12,-6 -4,-4 -7,-6 -10,-6 -4,0 -8,3 -13,9 -5,6 -8,12 -8,18l0 71c0,9 2,15 6,18 4,3 11,5 21,5l0 6 -79 0 0 -6z"/>
    <path class="fil1" d="M4884 1595l5 0c2,12 6,21 10,28 7,12 18,18 32,18 8,0 14,-2 19,-7 5,-4 7,-10 7,-17 0,-4 -1,-9 -4,-13 -3,-4 -7,-8 -14,-12l-18 -10c-13,-7 -23,-14 -29,-21 -6,-7 -9,-15 -9,-25 0,-12 4,-22 13,-29 8,-8 19,-11 32,-11 6,0 12,1 18,3 7,2 11,3 11,3 2,0 3,0 4,-1 1,-1 1,-2 2,-3l4 0 1 45 -4 0c-2,-10 -5,-18 -9,-24 -7,-11 -16,-16 -29,-16 -8,0 -13,2 -18,7 -4,5 -7,10 -7,16 0,10 7,18 22,26l21 11c23,12 34,27 34,43 0,13 -5,23 -14,31 -9,8 -22,12 -37,12 -6,0 -14,-1 -22,-3 -8,-2 -13,-3 -14,-3 -1,0 -2,0 -3,1 -1,1 -2,2 -2,3l-4 0 0 -51z"/>
    <path class="fil1" d="M5026 1429c3,-3 7,-5 12,-5 4,0 8,2 12,5 3,3 5,7 5,12 0,5 -2,8 -5,12 -3,3 -7,5 -12,5 -5,0 -9,-2 -12,-5 -3,-3 -5,-7 -5,-12 0,-5 2,-8 5,-12zm-25 212c11,-1 19,-3 21,-6 3,-3 4,-10 4,-23l0 -77c0,-7 0,-11 -1,-14 -1,-4 -5,-6 -10,-6 -1,0 -2,0 -3,0 -1,0 -4,1 -9,3l0 -4 7 -2c18,-6 31,-10 39,-13 3,-1 5,-2 6,-2 0,1 0,2 0,2l0 114c0,12 1,20 4,23 3,3 10,5 20,6l0 4 -77 0 0 -4z"/>
    <path class="fil1" d="M5167 1630c-16,0 -27,-7 -35,-20 -8,-13 -12,-28 -12,-45 0,-17 4,-32 11,-44 7,-12 18,-18 31,-18 7,0 14,3 21,8 7,6 11,15 11,29l0 68c0,4 -2,9 -8,14 -5,5 -12,7 -20,7zm-6 -135c-19,0 -36,8 -49,25 -13,16 -20,36 -20,59 0,18 6,34 17,48 11,14 26,21 44,21 10,0 19,-2 27,-7 4,-3 9,-7 15,-14l0 20 1 1 25 -9c15,-5 23,-8 23,-8l0 -6c-1,0 -2,0 -4,0 -1,0 -2,0 -3,0 -7,0 -12,-1 -14,-4 -2,-3 -3,-7 -3,-14l0 -130c0,-6 0,-13 0,-19 0,-6 0,-13 0,-19l0 -17 -1 0c-4,1 -7,2 -8,3 -4,1 -8,3 -13,4 -5,1 -9,3 -14,4l-13 3 0 6c3,0 5,-1 6,-1 1,0 2,0 3,0 5,0 9,1 10,4 1,2 2,7 2,13l0 50c-4,-4 -8,-7 -12,-9 -6,-3 -13,-5 -21,-5z"/>
    <path class="fil1" d="M5312 1507c12,0 20,5 26,14 3,5 5,13 6,24l-66 0c1,-9 4,-16 7,-22 6,-11 15,-16 27,-16zm9 -11c-20,0 -36,8 -49,23 -13,15 -19,34 -19,55 0,20 5,37 16,52 11,15 26,23 46,23 17,0 32,-6 44,-17 12,-11 20,-24 24,-38l-6 -2c-6,11 -13,19 -21,25 -8,6 -17,9 -28,9 -14,0 -25,-6 -35,-17 -10,-11 -16,-29 -16,-54l100 0c0,-19 -6,-33 -17,-44 -11,-10 -24,-15 -39,-15z"/>
    <path class="fil1" d="M5417 1644c-3,-3 -5,-8 -5,-12 0,-5 2,-9 5,-12 3,-3 8,-5 13,-5 5,0 9,2 12,5 3,3 5,8 5,12 0,5 -2,9 -5,13 -3,3 -8,5 -12,5 -5,0 -9,-2 -13,-5z"/>
    <path class="fil1" d="M5328 2589c0,62 50,111 112,111 62,0 112,-49 112,-111 0,-62 -50,-111 -112,-111 -62,0 -112,49 -112,111zm15 0c0,-54 44,-97 97,-97 54,0 97,44 97,97 0,54 -44,97 -97,97 -54,0 -97,-44 -97,-97z"/>
    <path class="fil1" d="M5406 2537l45 0c18,0 24,8 24,23 0,15 -6,25 -24,25l-45 0 0 -48zm0 63l44 0c14,0 20,9 21,24 0,4 1,10 2,15 1,7 2,13 3,17l20 0 0 -3c-2,-3 -4,-7 -5,-17 0,-5 -1,-10 -2,-15 -1,-15 -6,-24 -16,-29 12,-4 21,-16 21,-34 0,-22 -14,-36 -42,-36l-64 0 0 134 18 0 0 -56z"/>
   </g>
  </g>
 </g>
</svg>
